HIERARCHY
ROOT hips
{
	OFFSET 0.000000 104.274902 0.000000
	CHANNELS 6 Xposition Yposition Zposition Xrotation Yrotation Zrotation
	JOINT spine
	{
		OFFSET 0.000000 10.181549 0.131524
		CHANNELS 6 Xposition Yposition Zposition Xrotation Yrotation Zrotation
		JOINT chest
		{
			OFFSET 0.000000 9.893990 -1.470706
			CHANNELS 3 Xrotation Yrotation Zrotation
			JOINT upperChest
			{
				OFFSET 0.000000 9.220787 -1.370637
				CHANNELS 3 Xrotation Yrotation Zrotation
				JOINT neck
				{
					OFFSET 0.000000 16.740372 -2.049022
					CHANNELS 6 Xposition Yposition Zposition Xrotation Yrotation Zrotation
					JOINT head
					{
						OFFSET 0.000000 9.617859 1.684976
						CHANNELS 6 Xposition Yposition Zposition Xrotation Yrotation Zrotation
						JOINT headEnd
						{
							OFFSET 0.000000 22.037384 7.501072
							CHANNELS 6 Xposition Yposition Zposition Xrotation Yrotation Zrotation
							End Site
							{
								OFFSET 0.000000 23.106567 -2.828246
							}
						}
					}
				}
				JOINT rightShoulder
				{
					OFFSET -4.570000 11.014877 -2.160840
					CHANNELS 6 Xposition Yposition Zposition Xrotation Yrotation Zrotation
					JOINT rightUpperArm
					{
						OFFSET -10.592867 -0.524796 -2.232105
						CHANNELS 3 Xrotation Yrotation Zrotation
						JOINT rightLowerArm
						{
							OFFSET -27.841497 0.000000 -0.000002
							CHANNELS 3 Xrotation Yrotation Zrotation
							JOINT rightHand
							{
								OFFSET -28.328812 0.000000 -0.000001
								CHANNELS 3 Xrotation Yrotation Zrotation
								JOINT rightThumbProximal
								{
									OFFSET -2.464798 -1.573990 2.681911
									CHANNELS 6 Xposition Yposition Zposition Xrotation Yrotation Zrotation
									JOINT rightThumbIntermediate
									{
										OFFSET -3.244781 -1.873383 1.873376
										CHANNELS 3 Xrotation Yrotation Zrotation
										JOINT rightThumbDistal
										{
											OFFSET -2.646263 -1.527817 1.527818
											CHANNELS 6 Xposition Yposition Zposition Xrotation Yrotation Zrotation
											JOINT rightHandThumb4
											{
												OFFSET -1.994591 -1.151581 1.151575
												CHANNELS 6 Xposition Yposition Zposition Xrotation Yrotation Zrotation
												End Site
												{
													OFFSET -1.860176 -1.142715 1.365483
												}
											}
										}
									}
								}
								JOINT rightIndexProximal
								{
									OFFSET -9.108299 -0.517883 2.259803
									CHANNELS 6 Xposition Yposition Zposition Xrotation Yrotation Zrotation
									JOINT rightIndexIntermediate
									{
										OFFSET -3.699997 0.000000 0.000000
										CHANNELS 3 Xrotation Yrotation Zrotation
										JOINT rightIndexDistal
										{
											OFFSET -2.850006 0.000000 0.000000
											CHANNELS 3 Xrotation Yrotation Zrotation
											JOINT rightHandIndex4
											{
												OFFSET -2.772194 0.000000 0.000000
												CHANNELS 3 Xrotation Yrotation Zrotation
												End Site
												{
													OFFSET -2.772202 0.000000 -0.000484
												}
											}
										}
									}
								}
								JOINT rightMiddleProximal
								{
									OFFSET -9.532501 0.000000 -0.000000
									CHANNELS 6 Xposition Yposition Zposition Xrotation Yrotation Zrotation
									JOINT rightMiddleIntermediate
									{
										OFFSET -3.699997 0.000000 0.000000
										CHANNELS 3 Xrotation Yrotation Zrotation
										JOINT rightMiddleDistal
										{
											OFFSET -2.949997 0.000000 0.000000
											CHANNELS 3 Xrotation Yrotation Zrotation
											JOINT rightHandMiddle4
											{
												OFFSET -2.946594 0.000000 0.000000
												CHANNELS 3 Xrotation Yrotation Zrotation
												End Site
												{
													OFFSET -2.946602 0.000000 -0.000982
												}
											}
										}
									}
								}
								JOINT rightRingProximal
								{
									OFFSET -9.103600 -0.043106 -1.865100
									CHANNELS 6 Xposition Yposition Zposition Xrotation Yrotation Zrotation
									JOINT rightRingIntermediate
									{
										OFFSET -3.379303 0.000000 0.000000
										CHANNELS 3 Xrotation Yrotation Zrotation
										JOINT rightRingDistal
										{
											OFFSET -2.889694 0.000000 0.000000
											CHANNELS 3 Xrotation Yrotation Zrotation
											JOINT rightHandRing4
											{
												OFFSET -2.638802 0.000000 0.000000
												CHANNELS 3 Xrotation Yrotation Zrotation
												End Site
												{
													OFFSET -2.638802 0.000000 0.004218
												}
											}
										}
									}
								}
								JOINT rightLittleProximal
								{
									OFFSET -8.076698 -0.486725 -3.806299
									CHANNELS 6 Xposition Yposition Zposition Xrotation Yrotation Zrotation
									JOINT rightLittleIntermediate
									{
										OFFSET -3.600006 0.000000 0.000000
										CHANNELS 3 Xrotation Yrotation Zrotation
										JOINT rightLittleDistal
										{
											OFFSET -2.099998 0.000000 0.000000
											CHANNELS 3 Xrotation Yrotation Zrotation
											JOINT rightHandPinky4
											{
												OFFSET -2.115791 0.000000 0.000000
												CHANNELS 3 Xrotation Yrotation Zrotation
												End Site
												{
													OFFSET -2.115799 0.000000 0.000174
												}
											}
										}
									}
								}
							}
						}
					}
				}
				JOINT leftShoulder
				{
					OFFSET 4.570400 11.014679 -2.160816
					CHANNELS 6 Xposition Yposition Zposition Xrotation Yrotation Zrotation
					JOINT leftUpperArm
					{
						OFFSET 10.592373 -0.524597 -2.232116
						CHANNELS 3 Xrotation Yrotation Zrotation
						JOINT leftLowerArm
						{
							OFFSET 27.841488 0.000000 0.000001
							CHANNELS 3 Xrotation Yrotation Zrotation
							JOINT leftHand
							{
								OFFSET 28.328808 0.000000 -0.000000
								CHANNELS 3 Xrotation Yrotation Zrotation
								JOINT leftThumbProximal
								{
									OFFSET 2.466103 -1.576202 2.681698
									CHANNELS 6 Xposition Yposition Zposition Xrotation Yrotation Zrotation
									JOINT leftThumbIntermediate
									{
										OFFSET 3.243317 -1.872528 1.872530
										CHANNELS 3 Xrotation Yrotation Zrotation
										JOINT leftThumbDistal
										{
											OFFSET 2.647881 -1.528763 1.528754
											CHANNELS 6 Xposition Yposition Zposition Xrotation Yrotation Zrotation
											JOINT leftHandThumb4
											{
												OFFSET 1.998924 -1.154083 1.154080
												CHANNELS 6 Xposition Yposition Zposition Xrotation Yrotation Zrotation
												End Site
												{
													OFFSET 1.884041 -1.149155 1.337651
												}
											}
										}
									}
								}
								JOINT leftIndexProximal
								{
									OFFSET 9.109299 -0.518005 2.259900
									CHANNELS 6 Xposition Yposition Zposition Xrotation Yrotation Zrotation
									JOINT leftIndexIntermediate
									{
										OFFSET 3.699997 0.000000 0.000000
										CHANNELS 3 Xrotation Yrotation Zrotation
										JOINT leftIndexDistal
										{
											OFFSET 2.850006 0.000000 0.000000
											CHANNELS 3 Xrotation Yrotation Zrotation
											JOINT leftHandIndex4
											{
												OFFSET 2.774895 0.000000 0.000000
												CHANNELS 3 Xrotation Yrotation Zrotation
												End Site
												{
													OFFSET 2.774902 0.000000 -0.000072
												}
											}
										}
									}
								}
								JOINT leftMiddleProximal
								{
									OFFSET 9.533401 0.000000 0.000000
									CHANNELS 6 Xposition Yposition Zposition Xrotation Yrotation Zrotation
									JOINT leftMiddleIntermediate
									{
										OFFSET 3.699997 0.000000 0.000000
										CHANNELS 3 Xrotation Yrotation Zrotation
										JOINT leftMiddleDistal
										{
											OFFSET 2.949997 0.000000 0.000000
											CHANNELS 3 Xrotation Yrotation Zrotation
											JOINT leftHandMiddle4
											{
												OFFSET 2.952896 0.000000 0.000000
												CHANNELS 3 Xrotation Yrotation Zrotation
												End Site
												{
													OFFSET 2.952904 0.000000 0.000165
												}
											}
										}
									}
								}
								JOINT leftRingProximal
								{
									OFFSET 9.104500 -0.042999 -1.865101
									CHANNELS 6 Xposition Yposition Zposition Xrotation Yrotation Zrotation
									JOINT leftRingIntermediate
									{
										OFFSET 3.149994 0.000000 0.000000
										CHANNELS 3 Xrotation Yrotation Zrotation
										JOINT leftRingDistal
										{
											OFFSET 2.950005 0.000000 0.000000
											CHANNELS 3 Xrotation Yrotation Zrotation
											JOINT leftHandRing4
											{
												OFFSET 2.644302 0.000000 0.000000
												CHANNELS 3 Xrotation Yrotation Zrotation
												End Site
												{
													OFFSET 2.644302 0.000000 0.000083
												}
											}
										}
									}
								}
								JOINT leftLittleProximal
								{
									OFFSET 8.077805 -0.486893 -3.806302
									CHANNELS 6 Xposition Yposition Zposition Xrotation Yrotation Zrotation
									JOINT leftLittleIntermediate
									{
										OFFSET 3.600006 0.000000 0.000000
										CHANNELS 3 Xrotation Yrotation Zrotation
										JOINT leftLittleDistal
										{
											OFFSET 2.099998 0.000000 0.000000
											CHANNELS 3 Xrotation Yrotation Zrotation
											JOINT leftHandPinky4
											{
												OFFSET 2.125496 0.000000 0.000000
												CHANNELS 3 Xrotation Yrotation Zrotation
												End Site
												{
													OFFSET 2.125504 0.000000 -0.001254
												}
											}
										}
									}
								}
							}
						}
					}
				}
			}
		}
	}
	JOINT rightUpperLeg
	{
		OFFSET -8.207800 -6.751701 -1.599544
		CHANNELS 6 Xposition Yposition Zposition Xrotation Yrotation Zrotation
		JOINT rightLowerLeg
		{
			OFFSET 0.000004 -44.370152 0.345934
			CHANNELS 3 Xrotation Yrotation Zrotation
			JOINT rightFoot
			{
				OFFSET 0.000004 -44.423664 -3.043535
				CHANNELS 3 Xrotation Yrotation Zrotation
				JOINT rightToes
				{
					OFFSET 0.000001 -8.728691 10.710592
					CHANNELS 3 Xrotation Yrotation Zrotation
					JOINT rightToesEnd
					{
						OFFSET 0.000000 -0.000665 9.278101
						CHANNELS 3 Xrotation Yrotation Zrotation
						End Site
						{
							OFFSET 0.000000 -0.000665 9.278103
						}
					}
				}
			}
		}
	}
	JOINT leftUpperLeg
	{
		OFFSET 8.207800 -6.751701 -1.599544
		CHANNELS 6 Xposition Yposition Zposition Xrotation Yrotation Zrotation
		JOINT leftLowerLeg
		{
			OFFSET 0.000004 -44.370037 0.346940
			CHANNELS 3 Xrotation Yrotation Zrotation
			JOINT leftFoot
			{
				OFFSET 0.000004 -44.423611 -3.044388
				CHANNELS 3 Xrotation Yrotation Zrotation
				JOINT leftToes
				{
					OFFSET 0.000001 -8.728690 10.710592
					CHANNELS 3 Xrotation Yrotation Zrotation
					JOINT leftToesEnd
					{
						OFFSET 0.000000 -0.000680 9.278101
						CHANNELS 3 Xrotation Yrotation Zrotation
						End Site
						{
							OFFSET 0.000000 -0.000680 9.278101
						}
					}
				}
			}
		}
	}
}
MOTION
Frames: 4
Frame Time: 0.033333
0.542534 101.319893 1.570656 -0.893647 1.573140 -5.546819 -0.000001 10.181553 0.131525 0.516856 -0.046872 3.557818 1.034804 -0.093304 5.738249 1.034802 -0.093305 5.738249 0.000001 16.740396 -2.049021 1.078767 -0.127615 -3.023406 -0.000000 9.617854 1.684977 1.544526 0.396598 -7.269213 0.000001 22.037338 7.501079 -0.000001 0.000000 0.000000 -4.569999 11.014914 -2.160840 4.508131 3.324378 5.471501 -0.163046 0.249493 67.301563 -0.211171 19.963403 0.074326 -10.531437 -10.002535 10.057074 -2.464805 -1.573986 2.681907 18.156367 1.011009 -11.042397 1.356339 -32.831005 3.239471 -2.646263 -1.527798 1.527814 0.823170 -8.582396 -1.799055 -1.994590 -1.151583 1.151572 0.000001 -0.000003 -0.000000 -9.108299 -0.517882 2.259804 0.337510 -4.685604 7.880036 0.352111 -2.640966 20.590372 -0.209447 -0.081902 13.844962 0.000000 0.000000 -0.000003 -9.532501 0.000029 -0.000000 0.897911 -8.712369 15.899198 0.809765 -3.669310 33.033366 -1.462304 3.258245 16.537490 -0.000001 -0.000000 -0.000000 -9.103597 -0.043105 -1.865100 2.438750 -11.449019 26.373821 1.612244 -3.612411 40.778862 -1.927233 4.536064 19.276635 -0.000001 0.000000 -0.000000 -8.076712 -0.486722 -3.806300 5.482397 -15.792652 37.068041 1.204766 -3.675476 45.671084 -1.755046 3.270199 12.635164 0.000001 -0.000001 0.000000 4.570402 11.014691 -2.160815 3.584036 -13.764184 -5.044296 5.297160 3.638726 -83.715020 -0.201987 -16.986255 -0.059024 -26.927592 4.596722 -8.926862 2.466091 -1.576212 2.681695 18.159086 -1.013569 11.037831 1.358694 32.831524 -3.241097 2.647890 -1.528758 1.528754 0.962545 9.481588 2.469545 1.998929 -1.154096 1.154073 0.000001 0.000004 0.000001 9.109290 -0.518021 2.259900 0.337249 4.682337 -7.887245 0.352007 2.640699 -20.590432 0.025819 0.717450 -10.176825 0.000001 -0.000000 -0.000003 9.533400 0.000003 -0.000000 0.898336 8.711687 -15.906283 0.809592 3.668891 -33.033407 0.167374 1.396961 -12.680941 0.000000 -0.000000 0.000001 9.104486 -0.042999 -1.865101 2.441747 11.453689 -26.380895 1.612020 3.611959 -40.778893 0.517106 1.672952 -19.442880 0.000000 0.000001 0.000000 8.077801 -0.486893 -3.806299 5.483843 15.792331 -37.075298 1.204482 3.674963 -45.671122 0.450881 2.663487 -20.549427 0.000000 -0.000000 -0.000001 -8.207800 -6.751703 -1.599543 -2.712791 -5.227562 10.623949 14.803701 -5.049368 3.283863 -11.047584 1.075349 -7.644779 -0.548653 -0.000000 0.000002 -0.000000 -0.000000 -0.000000 8.207801 -6.751701 -1.599544 -20.541049 10.734997 16.323029 23.813354 9.225177 2.385355 -2.337403 3.426701 -8.899233 -0.441956 -0.000000 0.000003 -0.000000 -0.000000 0.000000 
0.514718 101.315033 1.666737 -0.848563 1.588157 -5.514751 0.000000 10.181558 0.131524 0.531263 -0.076023 3.551590 1.064372 -0.150939 5.738810 1.064372 -0.150941 5.738813 -0.000001 16.740385 -2.049020 1.076049 -0.118304 -3.304209 -0.000002 9.617834 1.684975 1.746154 0.214161 -7.034363 -0.000000 22.037369 7.501073 -0.000000 0.000000 -0.000000 -4.570000 11.014861 -2.160840 4.522292 3.286431 5.626911 0.616298 1.520421 66.974929 -0.165875 20.733652 0.060936 -9.150575 -6.167218 6.187774 -2.464793 -1.573998 2.681910 17.841113 1.350828 -11.190540 1.096697 -32.781725 2.822918 -2.646277 -1.527792 1.527819 0.305935 -7.468933 -1.614613 -1.994598 -1.151583 1.151574 -0.000000 -0.000002 0.000003 -9.108295 -0.517872 2.259803 0.397470 -4.760638 7.538117 0.390416 -2.739788 21.754837 -0.209669 -0.066161 13.679004 -0.000000 -0.000000 0.000000 -9.532502 -0.000001 0.000000 0.886172 -8.704576 15.608586 0.868865 -3.761835 34.253655 -1.469984 3.243048 16.668716 0.000000 0.000000 0.000001 -9.103600 -0.043108 -1.865103 2.347162 -11.337266 25.845671 1.715694 -3.706476 42.325163 -1.949706 4.495756 19.601762 0.000000 -0.000000 -0.000000 -8.076684 -0.486722 -3.806297 5.097734 -15.769461 36.141393 1.291611 -3.775460 47.131850 -1.772426 3.237961 12.900581 -0.000001 0.000000 0.000000 4.570399 11.014669 -2.160812 3.596934 -13.873478 -4.949271 5.074732 3.302862 -83.866042 -0.187527 -16.580677 -0.053488 -24.442949 3.332502 -8.093521 2.466089 -1.576208 2.681700 18.159081 -1.013575 11.037818 1.358681 32.831517 -3.241091 2.647888 -1.528741 1.528754 0.962554 9.481595 2.469534 1.998920 -1.154081 1.154080 0.000001 -0.000003 0.000002 9.109276 -0.518018 2.259901 0.329825 4.613040 -7.078826 0.316912 2.544509 -19.465505 0.012752 0.615455 -9.053506 -0.000001 -0.000001 0.000001 9.533378 0.000004 0.000002 0.754894 8.494324 -13.189195 0.756616 3.582070 -31.902885 0.142949 1.298732 -11.557057 -0.000001 -0.000001 -0.000000 9.104504 -0.043004 -1.865100 2.192674 11.322155 -23.930862 1.368268 3.368487 -36.967866 0.380231 1.361182 -15.653878 -0.000001 0.000001 0.000000 8.077786 -0.486894 -3.806301 4.581096 15.771836 -30.808931 1.008147 3.428149 -42.192285 0.346570 2.419589 -17.625744 0.000000 -0.000000 -0.000000 -8.207800 -6.751702 -1.599544 -2.696217 -5.167424 10.641668 14.781842 -5.113854 3.246125 -11.103425 1.076427 -7.631950 -0.634340 0.000004 0.000000 0.000000 0.000001 0.000000 8.207798 -6.751692 -1.599543 -20.523431 10.736372 16.318442 23.810029 9.192025 2.384806 -2.375080 3.455547 -8.948464 -0.474737 -0.000007 0.000002 0.000000 -0.000000 0.000000 
0.493760 101.307121 1.758858 -0.826956 1.583139 -5.472965 -0.000000 10.181562 0.131526 0.585663 -0.150756 3.538901 1.175116 -0.298026 5.730595 1.175116 -0.298027 5.730589 -0.000004 16.740374 -2.049020 1.067272 -0.111589 -3.472901 0.000000 9.617863 1.684976 1.830905 -0.076976 -6.713329 0.000001 22.037369 7.501078 -0.000000 -0.000000 -0.000000 -4.570000 11.014870 -2.160841 4.572804 2.968131 5.910798 2.108698 5.131399 66.372636 -0.161460 22.865815 0.064955 -18.840394 -1.839010 4.128396 -2.464793 -1.573986 2.681905 16.978494 2.280349 -11.576672 0.388819 -32.635221 1.690581 -2.646257 -1.527799 1.527814 -1.116678 -4.450153 -1.038009 -1.994579 -1.151580 1.151577 -0.000001 0.000000 0.000001 -9.108290 -0.517892 2.259802 0.555372 -4.968721 6.606629 0.504955 -3.004933 24.928939 -0.210000 -0.023270 13.226793 -0.000000 0.000001 0.000004 -9.532492 0.000001 -0.000001 0.855248 -8.687539 14.819706 1.039556 -4.007000 37.575179 -1.490719 3.201533 17.026241 0.000000 0.000001 0.000001 -9.103590 -0.043116 -1.865103 2.106191 -11.023904 24.412462 2.009886 -3.948132 46.537859 -2.009731 4.385226 20.487603 -0.000000 0.000000 0.000000 -8.076688 -0.486722 -3.806299 4.050543 -15.651932 33.623853 1.540984 -4.036346 51.114206 -1.819019 3.149724 13.623779 -0.000000 0.000000 0.000001 4.570398 11.014668 -2.160815 3.594283 -14.080452 -4.968526 5.282538 2.753786 -83.821810 -0.171184 -17.585123 -0.051739 -21.099745 1.337092 -7.011571 2.466088 -1.576202 2.681696 18.159069 -1.013584 11.037814 1.358701 32.831507 -3.241083 2.647868 -1.528737 1.528748 0.962550 9.481582 2.469529 1.998913 -1.154075 1.154072 0.000000 0.000003 0.000001 9.109285 -0.518021 2.259899 0.312744 4.451492 -5.207707 0.248257 2.336623 -17.060428 -0.008463 0.396578 -6.651224 -0.000001 -0.000000 0.000003 9.533381 0.000004 0.000001 0.469190 7.977562 -7.027704 0.649173 3.392962 -29.485373 0.097185 1.087129 -9.153812 -0.000000 -0.000000 0.000003 9.104486 -0.042992 -1.865101 1.619232 10.957094 -18.070310 0.904545 2.796679 -28.822650 0.158330 0.668120 -7.554357 -0.000000 0.000000 -0.000005 8.077786 -0.486883 -3.806297 2.411779 15.134306 -16.361546 0.631891 2.847242 -34.556898 0.156795 1.847856 -10.986428 -0.000001 -0.000000 0.000000 -8.207799 -6.751700 -1.599544 -2.692610 -5.085324 10.653824 14.816075 -5.172954 3.185445 -11.181809 1.075605 -7.600556 -0.722588 -0.000002 -0.000003 0.000000 -0.000001 -0.000000 8.207799 -6.751699 -1.599543 -20.490868 10.760094 16.319040 23.833962 9.149633 2.363097 -2.433402 3.488744 -8.983522 -0.508013 0.000014 0.000000 0.000000 -0.000000 0.000000 
0.471368 101.295410 1.819527 -0.862181 1.489646 -5.430697 0.000001 10.181574 0.131524 0.673800 -0.258972 3.520503 1.354200 -0.509948 5.714214 1.354198 -0.509950 5.714214 0.000004 16.740356 -2.049021 1.100520 -0.112711 -3.481934 -0.000001 9.617872 1.684972 2.270331 -0.550306 -6.607659 0.000000 22.037384 7.501075 -0.000001 -0.000000 -0.000000 -4.569997 11.014867 -2.160841 4.644338 2.444199 6.178464 2.005559 6.872454 65.896845 -0.242805 26.564612 0.110857 -35.616394 0.089495 10.186267 -2.464789 -1.573997 2.681915 15.682297 3.674001 -12.104456 -0.666166 -32.383873 0.011732 -2.646273 -1.527804 1.527812 -3.288645 0.000465 0.024292 -1.994595 -1.151584 1.151579 -0.000001 -0.000003 0.000002 -9.108287 -0.517868 2.259812 0.775585 -5.288503 5.219203 0.702599 -3.387301 29.661715 -0.209918 0.040656 12.552851 -0.000000 0.000002 -0.000002 -9.532499 0.000002 0.000005 0.808235 -8.660456 13.646109 1.319531 -4.352830 42.525195 -1.521141 3.139435 17.558984 -0.000001 0.000000 0.000000 -9.103610 -0.043095 -1.865094 1.771009 -10.533507 22.291700 2.479069 -4.266380 52.814076 -2.095988 4.218846 21.807281 -0.000001 0.000001 -0.000001 -8.076689 -0.486735 -3.806294 2.502529 -15.330337 29.898692 1.945004 -4.391536 57.053451 -1.886358 3.017127 14.701313 -0.000000 -0.000000 0.000000 4.570405 11.014686 -2.160815 3.619885 -14.188313 -4.791628 5.635571 1.608960 -83.768097 -0.174652 -20.150909 -0.060200 -21.987735 -0.551528 -6.693522 2.466107 -1.576215 2.681699 18.159082 -1.013579 11.037832 1.358687 32.831517 -3.241074 2.647882 -1.528749 1.528749 0.962558 9.481587 2.469539 1.998925 -1.154089 1.154070 -0.000002 -0.000001 -0.000000 9.109306 -0.518012 2.259899 0.299343 4.265509 -3.084249 0.191672 2.138499 -14.797504 -0.020023 0.189966 -4.390687 -0.000001 0.000000 -0.000001 9.533397 0.000006 0.000001 0.224198 7.359277 -0.330030 0.555401 3.210924 -27.210055 0.062257 0.886410 -6.892497 -0.000000 -0.000001 0.000002 9.104506 -0.042999 -1.865101 0.973030 10.389216 -10.974219 0.546268 2.203266 -21.159667 0.040692 -0.006573 0.064839 0.000001 -0.000000 0.000004 8.077803 -0.486898 -3.806301 0.126348 13.408770 -0.207399 0.334243 2.216081 -26.863947 0.026723 1.203831 -3.748174 0.000000 0.000001 -0.000001 -8.207800 -6.751683 -1.599544 -2.671623 -5.026539 10.642834 14.908558 -5.150722 3.150975 -11.269469 1.072408 -7.591090 -0.817388 0.000000 0.000003 -0.000000 -0.000001 0.000000 8.207797 -6.751681 -1.599547 -20.426745 10.825688 16.345531 23.892924 9.145386 2.323259 -2.503753 3.523806 -9.009229 -0.531859 -0.000009 0.000002 0.000000 0.000002 0.000000 
